<?xml version="1.0" encoding="UTF-8"?>
<svg id="Layer_1" data-name="Layer 1" xmlns="http://www.w3.org/2000/svg" viewBox="0 0 238.33 328.63">
  <defs>
    <style>
      .cls-1 {
        fill: #fff;
        fill-rule: evenodd;
        stroke-width: 0px;
      }
    </style>
  </defs>
  <path class="cls-1" d="m85.56,179.13s108.36,9.85,125.75-24.34c17.38-34.19-125.16-46.94-170.36-29.55-45.2,17.38-15.65,31.29-22.6,63.16-6.95,31.87-28.4,66.06-12.75,101.98,15.65,35.93,67.22,38.25,82.28,38.25h62.58c15.07,0,66.64-2.32,82.28-38.25,15.65-35.93-5.8-70.11-12.75-101.98-2.84-13.03.42-23.06,2.17-31.55-6.8,11.91-10.58,30.68-3.33,48.93,7.24,18.25,27.82,66.35-6.37,89.53-36.27,24.59-161.28,27.15-173.84-26.94-7.53-32.45,10.43-79.97,8.69-93.29,4.06-8.4,83.15-10.43,83.15-10.43,0,0-52.44,1.45-76.2-6.08-12.22-3.88-15.32-11.13-15.45-17.25,2.45-4.33,7.93-8.35,18.34-11.72,37.06-12.02,126.32-8.11,139.36,12.46,13.04,20.57-38.53,33.61-110.97,37.09h0Z"/>
  <path class="cls-1" d="m73.39,145.81s20.28-27.81-.58-45.78c-20.86-17.96-26.65-33.61-9.85-49.83,16.8-16.22,35.35-21.44,35.35-21.44,0,0-42.3,24.92-23.76,46.94,18.54,22.02,23.76,50.99-1.16,70.12h0Z"/>
  <path class="cls-1" d="m121.2,117.05s20.28-27.82-.58-45.78c-20.86-17.96-26.65-33.61-9.85-49.83C127.57,5.22,146.11,0,146.11,0c0,0-42.3,24.92-23.76,46.94,18.54,22.02,23.76,50.99-1.16,70.12h0Z"/>
  <path class="cls-1" d="m161.64,142.04s20.28-27.81-.58-45.78c-20.86-17.96-26.66-33.61-9.85-49.83,16.8-16.22,35.35-21.44,35.35-21.44,0,0-42.3,24.92-23.76,46.94,18.54,22.02,23.76,51-1.16,70.12h0Z"/>
  <path class="cls-1" d="m48.77,98.29c3.04,0,5.5,2.46,5.5,5.51s-2.46,5.5-5.5,5.5-5.51-2.46-5.51-5.5,2.46-5.51,5.51-5.51h0Z"/>
  <path class="cls-1" d="m106.42,73.37c2.88,0,5.22,2.34,5.22,5.22s-2.34,5.22-5.22,5.22-5.22-2.34-5.22-5.22,2.34-5.22,5.22-5.22h0Z"/>
  <path class="cls-1" d="m107.58,141.75c2.56,0,4.63,2.08,4.63,4.64s-2.07,4.63-4.63,4.63-4.63-2.08-4.63-4.63,2.08-4.64,4.63-4.64h0Z"/>
  <path class="cls-1" d="m142.93,24.7c3.2,0,5.8,2.59,5.8,5.8s-2.6,5.79-5.8,5.79-5.79-2.59-5.79-5.79,2.6-5.8,5.79-5.8h0Z"/>
  <path class="cls-1" d="m209.85,64.1c3.04,0,5.51,2.47,5.51,5.51s-2.47,5.51-5.51,5.51-5.51-2.47-5.51-5.51,2.47-5.51,5.51-5.51h0Z"/>
  <path class="cls-1" d="m204.93,102.34c2.56,0,4.64,2.08,4.64,4.63s-2.08,4.63-4.64,4.63-4.63-2.08-4.63-4.63,2.08-4.63,4.63-4.63h0Z"/>
</svg>